<?xml version="1.0" encoding="UTF-8" standalone="no"?><!DOCTYPE svg PUBLIC "-//W3C//DTD SVG 1.1//EN" "http://www.w3.org/Graphics/SVG/1.1/DTD/svg11.dtd"><!-- Generated by graphviz version 2.35.0 (20140103.1005) --><!-- Title: FlowChart Pages: 1 --><svg width="315pt" height="214pt" viewBox="0.00 0.00 315 214" xmlns="http://www.w3.org/2000/svg" xmlns:xlink="http://www.w3.org/1999/xlink"><defs><linearGradient id="g-terminatorqv39mwyann4s4i" x1="0%" x2="100%" y1="0%" y2="0%" spreadMethod="pad"><stop offset="0%" stop-color="#ff8787" stop-opacity="1"/><stop offset="100%" stop-color="#ffb9b9" stop-opacity="1"/></linearGradient><linearGradient id="g-decisionqv39mwyann4s4i" x1="0%" x2="100%" y1="0%" y2="0%" spreadMethod="pad"><stop offset="0%" stop-color="#ffd287" stop-opacity="1"/><stop offset="100%" stop-color="#ffffb9" stop-opacity="1"/></linearGradient><linearGradient id="g-processqv39mwyann4s4i" x1="0%" x2="100%" y1="0%" y2="0%" spreadMethod="pad"><stop offset="0%" stop-color="#99ff99" stop-opacity="1"/><stop offset="100%" stop-color="#cbffcb" stop-opacity="1"/></linearGradient><linearGradient id="g-defaultqv39mwyann4s4i" x1="0%" x2="100%" y1="0%" y2="0%" spreadMethod="pad"><stop offset="0%" stop-color="#99ff99" stop-opacity="1"/><stop offset="100%" stop-color="#cbffcb" stop-opacity="1"/></linearGradient><linearGradient id="g-moduleqv39mwyann4s4i" x1="0%" x2="100%" y1="0%" y2="0%" spreadMethod="pad"><stop offset="0%" stop-color="#77c1e4" stop-opacity="1"/><stop offset="100%" stop-color="#a9f3ff" stop-opacity="1"/></linearGradient><linearGradient id="g-dataioqv39mwyann4s4i" x1="0%" x2="100%" y1="0%" y2="0%" spreadMethod="pad"><stop offset="0%" stop-color="#bebebe" stop-opacity="1"/><stop offset="100%" stop-color="#f0f0f0" stop-opacity="1"/></linearGradient><linearGradient id="g-preparationqv39mwyann4s4i" x1="0%" x2="100%" y1="0%" y2="0%" spreadMethod="pad"><stop offset="0%" stop-color="#bebebe" stop-opacity="1"/><stop offset="100%" stop-color="#f0f0f0" stop-opacity="1"/></linearGradient><linearGradient id="g-commentqv39mwyann4s4i" x1="0%" x2="100%" y1="0%" y2="0%" spreadMethod="pad"><stop offset="0%" stop-color="#f5f588" stop-opacity="1"/><stop offset="100%" stop-color="#ffffba" stop-opacity="1"/></linearGradient><linearGradient id="g-manualqv39mwyann4s4i" x1="0%" x2="100%" y1="0%" y2="0%" spreadMethod="pad"><stop offset="0%" stop-color="#9e78ff" stop-opacity="1"/><stop offset="100%" stop-color="#d0aaff" stop-opacity="1"/></linearGradient><filter id="dropshadowqv39mwyann4s4i" height="150%" width="150%"><feGaussianBlur in="SourceAlpha" stdDeviation="3"/><feOffset dx="2" dy="2" result="offsetblur"/><feComponentTransfer/><feMerge><feMergeNode/><feMergeNode in="SourceGraphic"/></feMerge></filter></defs><g id="flowqv39mwyann4s4i" class="graph" transform="scale(1 1) rotate(0) translate(4 205)"><title>FlowChart</title><!-- terminator_block_1 --><g id="node1" class="node"><title>terminator_block_1</title><ellipse fill="url(#g-terminatorqv39mwyann4s4i)" stroke="black" cx="202" cy="-128" rx="35.364" ry="18"/><text xml:space="preserve" text-anchor="start" x="179.5" y="-125.5" font-family="Open Sans" font-size="10.00">Publisher</text></g><!-- process_block_3 --><g id="node3" class="node"><title>process_block_3</title><polygon fill="url(#g-processqv39mwyann4s4i)" stroke="black" points="179.5,-91 122.5,-91 122.5,-55 179.5,-55 179.5,-91"/><text xml:space="preserve" text-anchor="start" x="129" y="-70.5" font-family="Open Sans" font-size="10.00">Mediator</text></g><!-- terminator_block_1&#45;&gt;process_block_3 --><g id="edge1" class="edge"><title>terminator_block_1->process_block_3</title><path fill="none" stroke="black" d="M186.974,-111.385C183.059,-107.316 178.745,-102.833 174.505,-98.4269"/><polygon fill="black" stroke="black" points="176.979,-95.9499 167.523,-91.171 171.935,-100.804 176.979,-95.9499"/></g><!-- comment_block_2 --><g id="node2" class="node"><title>comment_block_2</title><polygon fill="url(#g-commentqv39mwyann4s4i)" stroke="black" points="248.25,-201 149.75,-201 149.75,-165 254.25,-165 254.25,-195 248.25,-201"/><polyline fill="none" stroke="black" points="248.25,-201 248.25,-195 "/><polyline fill="none" stroke="black" points="254.25,-195 248.25,-195 "/><text xml:space="preserve" text-anchor="start" x="153.5" y="-184" font-family="Open Sans" font-size="8.00">Publisher publishes to the</text><text xml:space="preserve" text-anchor="start" x="185.5" y="-175" font-family="Open Sans" font-size="8.00">Mediator</text></g><!-- comment_block_2&#45;&gt;terminator_block_1 --><g id="edge6" class="edge"><title>comment_block_2->terminator_block_1</title><path fill="none" stroke="black" stroke-dasharray="5,2" d="M202,-164.939C202,-160.589 202,-155.848 202,-151.28"/><polyline fill="none" stroke="black" points="202,-146.029 202,-151.029 "/></g><!-- terminator_block_5 --><g id="node5" class="node"><title>terminator_block_5</title><ellipse fill="url(#g-terminatorqv39mwyann4s4i)" stroke="black" cx="44" cy="-18" rx="44.2248" ry="18"/><text xml:space="preserve" text-anchor="start" x="14.5" y="-15.5" font-family="Open Sans" font-size="10.00">Subscriber 1</text></g><!-- process_block_3&#45;&gt;terminator_block_5 --><g id="edge2" class="edge"><title>process_block_3->terminator_block_5</title><path fill="none" stroke="black" d="M122.326,-57.797C109.349,-51.3693 93.8691,-43.7015 80.1104,-36.8864"/><polygon fill="black" stroke="black" points="81.4266,-33.6326 70.9121,-32.3303 78.3196,-39.9053 81.4266,-33.6326"/></g><!-- terminator_block_6 --><g id="node6" class="node"><title>terminator_block_6</title><ellipse fill="url(#g-terminatorqv39mwyann4s4i)" stroke="black" cx="151" cy="-18" rx="44.2248" ry="18"/><text xml:space="preserve" text-anchor="start" x="121.5" y="-15.5" font-family="Open Sans" font-size="10.00">Subscriber 2</text></g><!-- process_block_3&#45;&gt;terminator_block_6 --><g id="edge3" class="edge"><title>process_block_3->terminator_block_6</title><path fill="none" stroke="black" d="M151,-54.9387C151,-52.1018 151,-49.0988 151,-46.0857"/><polygon fill="black" stroke="black" points="154.5,-46.0293 151,-36.0293 147.5,-46.0293 154.5,-46.0293"/></g><!-- terminator_block_7 --><g id="node7" class="node"><title>terminator_block_7</title><ellipse fill="url(#g-terminatorqv39mwyann4s4i)" stroke="black" cx="258" cy="-18" rx="44.2248" ry="18"/><text xml:space="preserve" text-anchor="start" x="228.5" y="-15.5" font-family="Open Sans" font-size="10.00">Subscriber 3</text></g><!-- process_block_3&#45;&gt;terminator_block_7 --><g id="edge4" class="edge"><title>process_block_3->terminator_block_7</title><path fill="none" stroke="black" d="M179.674,-57.797C192.651,-51.3693 208.131,-43.7015 221.89,-36.8864"/><polygon fill="black" stroke="black" points="223.68,-39.9053 231.088,-32.3303 220.573,-33.6326 223.68,-39.9053"/></g><!-- comment_block_4 --><g id="node4" class="node"><title>comment_block_4</title><polygon fill="url(#g-commentqv39mwyann4s4i)" stroke="black" points="141.25,-146 52.75,-146 52.75,-110 147.25,-110 147.25,-140 141.25,-146"/><polyline fill="none" stroke="black" points="141.25,-146 141.25,-140 "/><polyline fill="none" stroke="black" points="147.25,-140 141.25,-140 "/><text xml:space="preserve" text-anchor="start" x="56.5" y="-129" font-family="Open Sans" font-size="8.00">Mediator notifies all the</text><text xml:space="preserve" text-anchor="start" x="78.5" y="-120" font-family="Open Sans" font-size="8.00">Subscribers</text></g><!-- comment_block_4&#45;&gt;process_block_3 --><g id="edge5" class="edge"><title>comment_block_4->process_block_3</title><path fill="none" stroke="black" stroke-dasharray="5,2" d="M116.417,-109.939C121.058,-105.116 126.161,-99.8133 130.988,-94.7969"/><polyline fill="none" stroke="black" points="134.613,-91.0293 131.146,-94.6322 "/></g></g></svg>